HIERARCHY
ROOT root
{
	OFFSET	0	13.1	24.9
	CHANNELS 6  Xposition Yposition Zposition Xrotation Yrotation Zrotation
	JOINT spine_1
	{
		OFFSET	0	9.99999	0
		CHANNELS 3  Xrotation Yrotation Zrotation
		JOINT spine_2
		{
			OFFSET	0	112	-10
			CHANNELS 3  Xrotation Yrotation Zrotation
			JOINT spine_3
			{
				OFFSET	0	206.5	19.3
				CHANNELS 3  Xrotation Yrotation Zrotation
				JOINT spine_4
				{
					OFFSET	0	110.4	14.6
					CHANNELS 3  Xrotation Yrotation Zrotation
					JOINT neck_1
					{
						OFFSET	0	71.8	-50.3
						CHANNELS 3  Xrotation Yrotation Zrotation
						JOINT neck_2
						{
							OFFSET	0	86.2	-25.8
							CHANNELS 3  Xrotation Yrotation Zrotation
							JOINT head_ee
							{
								OFFSET	0	179.8	-8.7
								CHANNELS 3  Xrotation Yrotation Zrotation
								End Site
								{
									OFFSET	1	0	0
								}
							}
						}
					}
					JOINT left_clavicle
					{
						OFFSET	-43.2	22.4	-70.8
						CHANNELS 3  Xrotation Yrotation Zrotation
						JOINT left_shoulder
						{
							OFFSET	-93.9	-5.79999	48.7
							CHANNELS 3  Xrotation Yrotation Zrotation
							JOINT left_elbow
							{
								OFFSET	-291.4	-30.8	15.2
								CHANNELS 3  Xrotation Yrotation Zrotation
								JOINT left_lowarm_twist
								{
									OFFSET	-110.7	-3.89999	13.6
									CHANNELS 3  Xrotation Yrotation Zrotation
									JOINT left_hand
									{
										OFFSET	-110.7	-3.89999	13.6
										CHANNELS 3  Xrotation Yrotation Zrotation
										JOINT left_ee
										{
											OFFSET	-80.8	-5.10001	12.1
											CHANNELS 3  Xrotation Yrotation Zrotation
											End Site
											{
												OFFSET	1	0	0
											}
										}
									}
								}
							}
						}
					}
					JOINT right_clavicle
					{
						OFFSET	43.2	22.4	-70.8
						CHANNELS 3  Xrotation Yrotation Zrotation
						JOINT right_shoulder
						{
							OFFSET	93.9	-5.79999	48.7
							CHANNELS 3  Xrotation Yrotation Zrotation
							JOINT right_elbow
							{
								OFFSET	291.4	-30.8	15.2
								CHANNELS 3  Xrotation Yrotation Zrotation
								JOINT right_lowarm_twist
								{
									OFFSET	110.7	-3.89999	13.6
									CHANNELS 3  Xrotation Yrotation Zrotation
									JOINT right_hand
									{
										OFFSET	110.7	-3.89999	13.6
										CHANNELS 3  Xrotation Yrotation Zrotation
										JOINT right_ee
										{
											OFFSET	80.8	-5.10001	12.1
											CHANNELS 3  Xrotation Yrotation Zrotation
											End Site
											{
												OFFSET	1	0	0
											}
										}
									}
								}
							}
						}
					}
				}
			}
		}
	}
	JOINT left_hip
	{
		OFFSET	-82.8	-127.5	0.300001
		CHANNELS 3  Xrotation Yrotation Zrotation
		JOINT left_knee
		{
			OFFSET	-28.2	-396.7	2.2
			CHANNELS 3  Xrotation Yrotation Zrotation
			JOINT left_ankle
			{
				OFFSET	-11.7	-411.3	35.4
				CHANNELS 3  Xrotation Yrotation Zrotation
				JOINT left_toes
				{
					OFFSET	0	-60	-88.6
					CHANNELS 3  Xrotation Yrotation Zrotation
					JOINT left_foot_ee
					{
						OFFSET	-22.5	-16.5	-42.2
						CHANNELS 3  Xrotation Yrotation Zrotation
						End Site
						{
							OFFSET	1	0	0
						}
					}
				}
			}
		}
	}
	JOINT right_hip
	{
		OFFSET	82.8	-127.5	0.300001
		CHANNELS 3  Xrotation Yrotation Zrotation
		JOINT right_knee
		{
			OFFSET	28.2	-396.7	2.2
			CHANNELS 3  Xrotation Yrotation Zrotation
			JOINT right_ankle
			{
				OFFSET	11.7	-411.3	35.4
				CHANNELS 3  Xrotation Yrotation Zrotation
				JOINT right_toes
				{
					OFFSET	0	-60	-88.6
					CHANNELS 3  Xrotation Yrotation Zrotation
					JOINT right_foot_ee
					{
						OFFSET	22.5	-16.5	-42.2
						CHANNELS 3  Xrotation Yrotation Zrotation
						End Site
						{
							OFFSET	1	0	0
						}
					}
				}
			}
		}
	}
}
MOTION
Frames: 10
Frame Time: 0.02
2571.37537682 754.3 -1457.86408405 134.765438848 76.2113687032 -134.111024451 -2.99212 -0.00193674 -0.740618 -2.99182 0.0451933 -0.73924 -2.99208 0.236525 -0.701839 -2.99274 0.122717 -0.730383 0.0170668 0.752192 0.73932 0.0185784 0.734736 0.874973 -0.0 0.0 -0.0 1.1086 1.16634 2.25154 -10.9862 -22.6793 72.9549 0.454507 -12.6887 0.0505347 -55.802 -4.76577 4.95143 5.72075 9.12233 45.8094 -0.0 0.0 -0.0 0.108686 -8.38373 -1.18579 12.8815 34.6553 -74.8058 1.95091 44.017 -0.788618 44.2294 0.587331 5.48118 0.618966 2.76245 -2.99168 0.0 0.0 0.0 -2.8848 6.2967 -5.87622 -26.8939 0.150449 4.08667 38.4211 7.45429 -4.72223 -2.03049 0.0 0.0 -0.0 0.0 -0.0 -2.74985 37.1925 -6.15365 3.71959 0.170947 0.545014 41.8702 -23.0462 5.28106 -38.3804 0.0 0.0 0.0 0.0 0.0 
2571.86897311 754.3 -1451.87527429 138.7769442 75.1204759454 -138.25112823 -2.99212 -0.00193674 -0.740618 -2.99182 0.0451933 -0.73924 -2.99208 0.236525 -0.701839 -2.99274 0.122717 -0.730383 0.0170668 0.752192 0.73932 0.0185784 0.734736 0.874973 -0.0 0.0 -0.0 1.1086 1.16634 2.25154 -10.9862 -22.6793 72.9549 0.454507 -12.6887 0.0505347 -55.802 -4.76577 4.95143 5.72075 9.12233 45.8094 -0.0 0.0 -0.0 0.108686 -8.38373 -1.18579 12.8815 34.6553 -74.8058 1.95091 44.017 -0.788618 44.2294 0.587331 5.48118 0.618966 2.76245 -2.99168 0.0 0.0 0.0 -2.8848 6.2967 -5.87622 -26.8939 0.150449 4.08667 38.4211 7.45429 -4.72223 -2.03049 0.0 0.0 -0.0 0.0 -0.0 -2.74985 37.1925 -6.15365 3.71959 0.170947 0.545014 41.8702 -23.0462 5.28106 -38.3804 0.0 0.0 0.0 0.0 0.0 
2566.34264921 755.479 -1449.42880931 140.211609895 75.2318415068 -141.155050074 -3.06476 0.0195362 -0.509018 -3.06462 0.0518863 -0.506743 -3.06493 0.182919 -0.475418 -3.06523 0.105541 -0.498339 -1.00035 0.801712 0.705225 -0.998887 0.869832 0.845005 -0.0 0.0 -0.0 0.925271 1.28144 1.91405 -11.88 -22.6204 72.7145 0.434409 -12.1447 0.046213 -55.7192 -4.75569 4.9481 5.16229 8.81355 40.5976 -0.0 0.0 -0.0 -0.485472 -9.39332 -0.269574 14.2397 33.3335 -76.2245 2.45525 50.5653 -1.15982 44.985 0.633619 5.56607 0.532632 3.82267 -1.96675 0.0 0.0 0.0 -3.41874 6.68526 -5.09465 -14.6419 0.320973 2.21795 34.4573 9.80457 -4.35688 -5.1689 0.0 0.0 -0.0 0.0 -0.0 -3.50578 35.1 -5.61288 4.22561 0.196931 0.618283 41.8108 -21.5546 5.23279 -36.669 0.0 0.0 0.0 0.0 0.0 
2555.54586901 756.596 -1450.07447067 140.12516786 76.5497977133 -140.907136076 -3.05403 -0.151759 -0.153771 -3.05403 -0.141666 -0.163116 -3.0536 -0.0939902 -0.19453 -3.05363 -0.123533 -0.177245 -1.17975 1.22389 1.40977 -1.17448 1.06516 1.64396 -0.0 0.0 -0.0 0.706134 1.41752 1.51145 -13.0858 -22.494 72.0779 0.365837 -10.2721 0.0328823 -54.7837 -4.64209 4.90941 4.07251 7.59216 31.2699 -0.0 0.0 -0.0 -0.711751 -9.23242 0.145421 16.7221 31.4889 -77.6949 3.36365 59.0161 -1.90406 46.8709 0.754013 5.77525 0.579097 4.9111 -1.82208 0.0 0.0 0.0 -2.12063 7.70491 -2.90057 -7.27528 0.230463 1.09201 29.3467 12.4459 -3.84043 -8.51094 0.0 0.0 -0.0 0.0 -0.0 -3.16913 33.836 -4.74047 3.02583 0.136378 0.444203 41.4061 -20.4347 5.16717 -34.4144 0.0 0.0 0.0 0.0 0.0 
2519.4216734 763.0 -1450.10118415 128.898863674 79.7216045152 -130.976947446 -3.08395 0.369605 0.774051 -3.08367 0.319603 0.795999 -3.07864 0.0995705 0.851963 -3.07958 0.232868 0.825548 -6.78466 -0.836518 4.11531 -6.73152 -4.53894 3.9597 -0.0 0.0 -0.0 1.70419 1.81537 3.44317 -11.6044 -23.5226 67.5047 0.192762 -5.45468 0.00918262 -51.6538 -4.26681 4.76659 0.6765 6.38088 7.09626 -0.0 0.0 -0.0 1.93203 -10.7901 -4.57102 18.4489 20.1085 -78.2457 3.03621 56.3695 -1.62723 51.2683 1.0611 6.24697 0.0444977 1.77229 0.450195 0.0 0.0 0.0 -1.57774 9.70433 0.764937 -4.14184 0.148236 0.618224 21.4793 22.1339 -3.01677 -10.8036 0.0 0.0 -0.0 0.0 -0.0 -3.35466 32.2519 -3.00663 -4.30158 -0.153054 -0.642266 40.9734 -19.8471 5.11389 -32.5333 0.0 0.0 0.0 0.0 0.0 
2519.52198422 763.0 -1448.9369283 129.901270138 79.5711697783 -131.995944212 -3.08395 0.369605 0.774051 -3.08367 0.319603 0.795999 -3.07864 0.0995705 0.851963 -3.07958 0.232868 0.825548 -6.78466 -0.836518 4.11531 -6.73152 -4.53894 3.9597 -0.0 0.0 -0.0 1.70419 1.81537 3.44317 -11.6044 -23.5226 67.5047 0.192762 -5.45468 0.00918262 -51.6538 -4.26681 4.76659 0.6765 6.38088 7.09626 -0.0 0.0 -0.0 1.93203 -10.7901 -4.57102 18.4489 20.1085 -78.2457 3.03621 56.3695 -1.62723 51.2683 1.0611 6.24697 0.0444977 1.77229 0.450195 0.0 0.0 0.0 -1.57774 9.70433 0.764937 -4.14184 0.148236 0.618224 21.4793 22.1339 -3.01677 -10.8036 0.0 0.0 -0.0 0.0 -0.0 -3.35466 32.2519 -3.00663 -4.30158 -0.153054 -0.642266 40.9734 -19.8471 5.11389 -32.5333 0.0 0.0 0.0 0.0 0.0 
2519.73615888 763.0 -1446.6189264 131.812505108 79.2622817714 -133.940240465 -3.08395 0.369605 0.774051 -3.08367 0.319603 0.795999 -3.07864 0.0995705 0.851963 -3.07958 0.232868 0.825548 -6.78466 -0.836518 4.11531 -6.73152 -4.53894 3.9597 -0.0 0.0 -0.0 1.70419 1.81537 3.44317 -11.6044 -23.5226 67.5047 0.192762 -5.45468 0.00918262 -51.6538 -4.26681 4.76659 0.6765 6.38088 7.09626 -0.0 0.0 -0.0 1.93203 -10.7901 -4.57102 18.4489 20.1085 -78.2457 3.03621 56.3695 -1.62723 51.2683 1.0611 6.24697 0.0444977 1.77229 0.450195 0.0 0.0 0.0 -1.57774 9.70433 0.764937 -4.14184 0.148236 0.618224 21.4793 22.1339 -3.01677 -10.8036 0.0 0.0 -0.0 0.0 -0.0 -3.35466 32.2519 -3.00663 -4.30158 -0.153054 -0.642266 40.9734 -19.8471 5.11389 -32.5333 0.0 0.0 0.0 0.0 0.0 
2520.27370568 763.0 -1441.53318425 135.635128963 78.5449831398 -137.835558445 -3.08395 0.369605 0.774051 -3.08367 0.319603 0.795999 -3.07864 0.0995705 0.851963 -3.07958 0.232868 0.825548 -6.78466 -0.836518 4.11531 -6.73152 -4.53894 3.9597 -0.0 0.0 -0.0 1.70419 1.81537 3.44317 -11.6044 -23.5226 67.5047 0.192762 -5.45468 0.00918262 -51.6538 -4.26681 4.76659 0.6765 6.38088 7.09626 -0.0 0.0 -0.0 1.93203 -10.7901 -4.57102 18.4489 20.1085 -78.2457 3.03621 56.3695 -1.62723 51.2683 1.0611 6.24697 0.0444977 1.77229 0.450195 0.0 0.0 0.0 -1.57774 9.70433 0.764937 -4.14184 0.148236 0.618224 21.4793 22.1339 -3.01677 -10.8036 0.0 0.0 -0.0 0.0 -0.0 -3.35466 32.2519 -3.00663 -4.30158 -0.153054 -0.642266 40.9734 -19.8471 5.11389 -32.5333 0.0 0.0 0.0 0.0 0.0 
2520.60294285 763.0 -1438.78549707 137.505121124 78.1373434549 -139.744925294 -3.08395 0.369605 0.774051 -3.08367 0.319603 0.795999 -3.07864 0.0995705 0.851963 -3.07958 0.232868 0.825548 -6.78466 -0.836518 4.11531 -6.73152 -4.53894 3.9597 -0.0 0.0 -0.0 1.70419 1.81537 3.44317 -11.6044 -23.5226 67.5047 0.192762 -5.45468 0.00918262 -51.6538 -4.26681 4.76659 0.6765 6.38088 7.09626 -0.0 0.0 -0.0 1.93203 -10.7901 -4.57102 18.4489 20.1085 -78.2457 3.03621 56.3695 -1.62723 51.2683 1.0611 6.24697 0.0444977 1.77229 0.450195 0.0 0.0 0.0 -1.57774 9.70433 0.764937 -4.14184 0.148236 0.618224 21.4793 22.1339 -3.01677 -10.8036 0.0 0.0 -0.0 0.0 -0.0 -3.35466 32.2519 -3.00663 -4.30158 -0.153054 -0.642266 40.9734 -19.8471 5.11389 -32.5333 0.0 0.0 0.0 0.0 0.0 
2520.55169827 763.0 -1439.19860562 137.232174151 78.1994567043 -139.466053604 -3.08395 0.369605 0.774051 -3.08367 0.319603 0.795999 -3.07864 0.0995705 0.851963 -3.07958 0.232868 0.825548 -6.78466 -0.836518 4.11531 -6.73152 -4.53894 3.9597 -0.0 0.0 -0.0 1.70419 1.81537 3.44317 -11.6044 -23.5226 67.5047 0.192762 -5.45468 0.00918262 -51.6538 -4.26681 4.76659 0.6765 6.38088 7.09626 -0.0 0.0 -0.0 1.93203 -10.7901 -4.57102 18.4489 20.1085 -78.2457 3.03621 56.3695 -1.62723 51.2683 1.0611 6.24697 0.0444977 1.77229 0.450195 0.0 0.0 0.0 -1.57774 9.70433 0.764937 -4.14184 0.148236 0.618224 21.4793 22.1339 -3.01677 -10.8036 0.0 0.0 -0.0 0.0 -0.0 -3.35466 32.2519 -3.00663 -4.30158 -0.153054 -0.642266 40.9734 -19.8471 5.11389 -32.5333 0.0 0.0 0.0 0.0 0.0 
